<mxfile host="app.diagrams.net" modified="2023-05-03T14:39:27.542Z" agent="Mozilla/5.0 (Macintosh; Intel Mac OS X 10_15_7) AppleWebKit/605.1.15 (KHTML, like Gecko) Version/15.4 Safari/605.1.15" etag="ZyKNfVUpiCU0t68VM-aP" version="21.2.6">
  <diagram name="Page-1" id="2YBvvXClWsGukQMizWep">
    <mxGraphModel dx="1363" dy="929" grid="1" gridSize="10" guides="1" tooltips="1" connect="1" arrows="1" fold="1" page="1" pageScale="1" pageWidth="850" pageHeight="1100" math="0" shadow="0">
      <root>
        <mxCell id="0" />
        <mxCell id="1" parent="0" />
        <mxCell id="aM9ryv3xv72pqoxQDRHE-5" value=":Client" style="shape=umlLifeline;perimeter=lifelinePerimeter;whiteSpace=wrap;html=1;container=0;dropTarget=0;collapsible=0;recursiveResize=0;outlineConnect=0;portConstraint=eastwest;newEdgeStyle={&quot;edgeStyle&quot;:&quot;elbowEdgeStyle&quot;,&quot;elbow&quot;:&quot;vertical&quot;,&quot;curved&quot;:0,&quot;rounded&quot;:0};" parent="1" vertex="1">
          <mxGeometry x="340" y="40" width="100" height="900" as="geometry" />
        </mxCell>
        <mxCell id="aM9ryv3xv72pqoxQDRHE-6" value="" style="html=1;points=[];perimeter=orthogonalPerimeter;outlineConnect=0;targetShapes=umlLifeline;portConstraint=eastwest;newEdgeStyle={&quot;edgeStyle&quot;:&quot;elbowEdgeStyle&quot;,&quot;elbow&quot;:&quot;vertical&quot;,&quot;curved&quot;:0,&quot;rounded&quot;:0};" parent="aM9ryv3xv72pqoxQDRHE-5" vertex="1">
          <mxGeometry x="45" y="80" width="10" height="820" as="geometry" />
        </mxCell>
        <mxCell id="aM9ryv3xv72pqoxQDRHE-7" value="fill in personal details" style="html=1;verticalAlign=bottom;endArrow=block;edgeStyle=elbowEdgeStyle;elbow=vertical;curved=0;rounded=0;" parent="1" source="AI44dBaWt2bdJYa-vQ4_-3" target="aM9ryv3xv72pqoxQDRHE-6" edge="1">
          <mxGeometry relative="1" as="geometry">
            <mxPoint x="115" y="120" as="sourcePoint" />
            <Array as="points">
              <mxPoint x="110" y="140" />
              <mxPoint x="180" y="120" />
            </Array>
          </mxGeometry>
        </mxCell>
        <mxCell id="AI44dBaWt2bdJYa-vQ4_-1" value="TestTaker" style="shape=umlActor;verticalLabelPosition=bottom;verticalAlign=top;html=1;outlineConnect=0;" vertex="1" parent="1">
          <mxGeometry x="70" y="20" width="30" height="60" as="geometry" />
        </mxCell>
        <mxCell id="AI44dBaWt2bdJYa-vQ4_-3" value="" style="html=1;points=[];perimeter=orthogonalPerimeter;outlineConnect=0;targetShapes=umlLifeline;portConstraint=eastwest;newEdgeStyle={&quot;edgeStyle&quot;:&quot;elbowEdgeStyle&quot;,&quot;elbow&quot;:&quot;vertical&quot;,&quot;curved&quot;:0,&quot;rounded&quot;:0};" vertex="1" parent="1">
          <mxGeometry x="80" y="120" width="10" height="820" as="geometry" />
        </mxCell>
        <mxCell id="AI44dBaWt2bdJYa-vQ4_-5" value="" style="endArrow=none;dashed=1;html=1;rounded=0;" edge="1" parent="1" source="AI44dBaWt2bdJYa-vQ4_-3" target="AI44dBaWt2bdJYa-vQ4_-1">
          <mxGeometry width="50" height="50" relative="1" as="geometry">
            <mxPoint x="400" y="270" as="sourcePoint" />
            <mxPoint x="450" y="220" as="targetPoint" />
          </mxGeometry>
        </mxCell>
        <mxCell id="AI44dBaWt2bdJYa-vQ4_-8" value=":Server" style="shape=umlLifeline;perimeter=lifelinePerimeter;whiteSpace=wrap;html=1;container=0;dropTarget=0;collapsible=0;recursiveResize=0;outlineConnect=0;portConstraint=eastwest;newEdgeStyle={&quot;edgeStyle&quot;:&quot;elbowEdgeStyle&quot;,&quot;elbow&quot;:&quot;vertical&quot;,&quot;curved&quot;:0,&quot;rounded&quot;:0};" vertex="1" parent="1">
          <mxGeometry x="520" y="40" width="100" height="900" as="geometry" />
        </mxCell>
        <mxCell id="AI44dBaWt2bdJYa-vQ4_-9" value="" style="html=1;points=[];perimeter=orthogonalPerimeter;outlineConnect=0;targetShapes=umlLifeline;portConstraint=eastwest;newEdgeStyle={&quot;edgeStyle&quot;:&quot;elbowEdgeStyle&quot;,&quot;elbow&quot;:&quot;vertical&quot;,&quot;curved&quot;:0,&quot;rounded&quot;:0};" vertex="1" parent="AI44dBaWt2bdJYa-vQ4_-8">
          <mxGeometry x="45" y="100" width="10" height="70" as="geometry" />
        </mxCell>
        <mxCell id="AI44dBaWt2bdJYa-vQ4_-18" value="" style="html=1;points=[];perimeter=orthogonalPerimeter;outlineConnect=0;targetShapes=umlLifeline;portConstraint=eastwest;newEdgeStyle={&quot;edgeStyle&quot;:&quot;elbowEdgeStyle&quot;,&quot;elbow&quot;:&quot;vertical&quot;,&quot;curved&quot;:0,&quot;rounded&quot;:0};" vertex="1" parent="AI44dBaWt2bdJYa-vQ4_-8">
          <mxGeometry x="45" y="210" width="10" height="100" as="geometry" />
        </mxCell>
        <mxCell id="AI44dBaWt2bdJYa-vQ4_-30" value="" style="html=1;points=[];perimeter=orthogonalPerimeter;outlineConnect=0;targetShapes=umlLifeline;portConstraint=eastwest;newEdgeStyle={&quot;edgeStyle&quot;:&quot;elbowEdgeStyle&quot;,&quot;elbow&quot;:&quot;vertical&quot;,&quot;curved&quot;:0,&quot;rounded&quot;:0};" vertex="1" parent="AI44dBaWt2bdJYa-vQ4_-8">
          <mxGeometry x="45" y="365" width="10" height="190" as="geometry" />
        </mxCell>
        <mxCell id="AI44dBaWt2bdJYa-vQ4_-57" value="" style="html=1;points=[];perimeter=orthogonalPerimeter;outlineConnect=0;targetShapes=umlLifeline;portConstraint=eastwest;newEdgeStyle={&quot;edgeStyle&quot;:&quot;elbowEdgeStyle&quot;,&quot;elbow&quot;:&quot;vertical&quot;,&quot;curved&quot;:0,&quot;rounded&quot;:0};" vertex="1" parent="AI44dBaWt2bdJYa-vQ4_-8">
          <mxGeometry x="45" y="626" width="10" height="190" as="geometry" />
        </mxCell>
        <mxCell id="AI44dBaWt2bdJYa-vQ4_-10" value=":Drools" style="shape=umlLifeline;perimeter=lifelinePerimeter;whiteSpace=wrap;html=1;container=0;dropTarget=0;collapsible=0;recursiveResize=0;outlineConnect=0;portConstraint=eastwest;newEdgeStyle={&quot;edgeStyle&quot;:&quot;elbowEdgeStyle&quot;,&quot;elbow&quot;:&quot;vertical&quot;,&quot;curved&quot;:0,&quot;rounded&quot;:0};" vertex="1" parent="1">
          <mxGeometry x="900" y="40" width="100" height="900" as="geometry" />
        </mxCell>
        <mxCell id="AI44dBaWt2bdJYa-vQ4_-11" value="" style="html=1;points=[];perimeter=orthogonalPerimeter;outlineConnect=0;targetShapes=umlLifeline;portConstraint=eastwest;newEdgeStyle={&quot;edgeStyle&quot;:&quot;elbowEdgeStyle&quot;,&quot;elbow&quot;:&quot;vertical&quot;,&quot;curved&quot;:0,&quot;rounded&quot;:0};" vertex="1" parent="AI44dBaWt2bdJYa-vQ4_-10">
          <mxGeometry x="45" y="453" width="10" height="90" as="geometry" />
        </mxCell>
        <mxCell id="AI44dBaWt2bdJYa-vQ4_-60" value="" style="html=1;points=[];perimeter=orthogonalPerimeter;outlineConnect=0;targetShapes=umlLifeline;portConstraint=eastwest;newEdgeStyle={&quot;edgeStyle&quot;:&quot;elbowEdgeStyle&quot;,&quot;elbow&quot;:&quot;vertical&quot;,&quot;curved&quot;:0,&quot;rounded&quot;:0};" vertex="1" parent="AI44dBaWt2bdJYa-vQ4_-10">
          <mxGeometry x="45" y="716" width="10" height="80" as="geometry" />
        </mxCell>
        <mxCell id="AI44dBaWt2bdJYa-vQ4_-12" value=":Database" style="shape=umlLifeline;perimeter=lifelinePerimeter;whiteSpace=wrap;html=1;container=0;dropTarget=0;collapsible=0;recursiveResize=0;outlineConnect=0;portConstraint=eastwest;newEdgeStyle={&quot;edgeStyle&quot;:&quot;elbowEdgeStyle&quot;,&quot;elbow&quot;:&quot;vertical&quot;,&quot;curved&quot;:0,&quot;rounded&quot;:0};" vertex="1" parent="1">
          <mxGeometry x="730" y="40" width="100" height="900" as="geometry" />
        </mxCell>
        <mxCell id="AI44dBaWt2bdJYa-vQ4_-13" value="" style="html=1;points=[];perimeter=orthogonalPerimeter;outlineConnect=0;targetShapes=umlLifeline;portConstraint=eastwest;newEdgeStyle={&quot;edgeStyle&quot;:&quot;elbowEdgeStyle&quot;,&quot;elbow&quot;:&quot;vertical&quot;,&quot;curved&quot;:0,&quot;rounded&quot;:0};" vertex="1" parent="AI44dBaWt2bdJYa-vQ4_-12">
          <mxGeometry x="45" y="120" width="10" height="40" as="geometry" />
        </mxCell>
        <mxCell id="AI44dBaWt2bdJYa-vQ4_-21" value="" style="html=1;points=[];perimeter=orthogonalPerimeter;outlineConnect=0;targetShapes=umlLifeline;portConstraint=eastwest;newEdgeStyle={&quot;edgeStyle&quot;:&quot;elbowEdgeStyle&quot;,&quot;elbow&quot;:&quot;vertical&quot;,&quot;curved&quot;:0,&quot;rounded&quot;:0};" vertex="1" parent="AI44dBaWt2bdJYa-vQ4_-12">
          <mxGeometry x="45" y="220" width="10" height="60" as="geometry" />
        </mxCell>
        <mxCell id="AI44dBaWt2bdJYa-vQ4_-33" value="" style="html=1;points=[];perimeter=orthogonalPerimeter;outlineConnect=0;targetShapes=umlLifeline;portConstraint=eastwest;newEdgeStyle={&quot;edgeStyle&quot;:&quot;elbowEdgeStyle&quot;,&quot;elbow&quot;:&quot;vertical&quot;,&quot;curved&quot;:0,&quot;rounded&quot;:0};" vertex="1" parent="AI44dBaWt2bdJYa-vQ4_-12">
          <mxGeometry x="45" y="380" width="10" height="90" as="geometry" />
        </mxCell>
        <mxCell id="AI44dBaWt2bdJYa-vQ4_-68" value="" style="html=1;points=[];perimeter=orthogonalPerimeter;outlineConnect=0;targetShapes=umlLifeline;portConstraint=eastwest;newEdgeStyle={&quot;edgeStyle&quot;:&quot;elbowEdgeStyle&quot;,&quot;elbow&quot;:&quot;vertical&quot;,&quot;curved&quot;:0,&quot;rounded&quot;:0};" vertex="1" parent="AI44dBaWt2bdJYa-vQ4_-12">
          <mxGeometry x="45" y="647" width="10" height="70" as="geometry" />
        </mxCell>
        <mxCell id="AI44dBaWt2bdJYa-vQ4_-14" value="" style="html=1;verticalAlign=bottom;endArrow=open;edgeStyle=elbowEdgeStyle;elbow=vertical;curved=0;rounded=0;endFill=0;" edge="1" parent="1" source="aM9ryv3xv72pqoxQDRHE-6" target="AI44dBaWt2bdJYa-vQ4_-9">
          <mxGeometry x="0.0061" relative="1" as="geometry">
            <mxPoint x="400" y="160" as="sourcePoint" />
            <Array as="points">
              <mxPoint x="440" y="160" />
              <mxPoint x="440" y="150" />
            </Array>
            <mxPoint x="615" y="160" as="targetPoint" />
            <mxPoint as="offset" />
          </mxGeometry>
        </mxCell>
        <mxCell id="AI44dBaWt2bdJYa-vQ4_-80" value="store personal details" style="edgeLabel;html=1;align=center;verticalAlign=middle;resizable=0;points=[];" vertex="1" connectable="0" parent="AI44dBaWt2bdJYa-vQ4_-14">
          <mxGeometry x="-0.0235" y="-1" relative="1" as="geometry">
            <mxPoint x="-1" as="offset" />
          </mxGeometry>
        </mxCell>
        <mxCell id="AI44dBaWt2bdJYa-vQ4_-15" value="" style="html=1;verticalAlign=bottom;endArrow=classic;edgeStyle=elbowEdgeStyle;elbow=vertical;curved=0;rounded=0;endFill=1;" edge="1" parent="1" source="AI44dBaWt2bdJYa-vQ4_-8" target="AI44dBaWt2bdJYa-vQ4_-12">
          <mxGeometry relative="1" as="geometry">
            <mxPoint x="630" y="170" as="sourcePoint" />
            <Array as="points">
              <mxPoint x="700" y="180" />
              <mxPoint x="690" y="180" />
              <mxPoint x="620" y="180" />
              <mxPoint x="620" y="170" />
            </Array>
            <mxPoint x="745" y="180" as="targetPoint" />
            <mxPoint as="offset" />
          </mxGeometry>
        </mxCell>
        <mxCell id="AI44dBaWt2bdJYa-vQ4_-81" value="store personal details" style="edgeLabel;html=1;align=center;verticalAlign=middle;resizable=0;points=[];" vertex="1" connectable="0" parent="AI44dBaWt2bdJYa-vQ4_-15">
          <mxGeometry x="0.0565" y="4" relative="1" as="geometry">
            <mxPoint x="-10" y="-1" as="offset" />
          </mxGeometry>
        </mxCell>
        <mxCell id="AI44dBaWt2bdJYa-vQ4_-17" value="start personality test" style="html=1;verticalAlign=bottom;endArrow=block;edgeStyle=elbowEdgeStyle;elbow=vertical;curved=0;rounded=0;" edge="1" parent="1">
          <mxGeometry relative="1" as="geometry">
            <mxPoint x="90" y="240" as="sourcePoint" />
            <Array as="points">
              <mxPoint x="110" y="240" />
              <mxPoint x="180" y="220" />
            </Array>
            <mxPoint x="385" y="240" as="targetPoint" />
          </mxGeometry>
        </mxCell>
        <mxCell id="AI44dBaWt2bdJYa-vQ4_-19" value="" style="html=1;verticalAlign=bottom;endArrow=open;edgeStyle=elbowEdgeStyle;elbow=vertical;curved=0;rounded=0;endFill=0;" edge="1" parent="1" source="aM9ryv3xv72pqoxQDRHE-6" target="AI44dBaWt2bdJYa-vQ4_-18">
          <mxGeometry x="0.0061" relative="1" as="geometry">
            <mxPoint x="430" y="270" as="sourcePoint" />
            <Array as="points">
              <mxPoint x="435" y="270" />
              <mxPoint x="435" y="260" />
            </Array>
            <mxPoint x="560" y="270" as="targetPoint" />
            <mxPoint as="offset" />
          </mxGeometry>
        </mxCell>
        <mxCell id="AI44dBaWt2bdJYa-vQ4_-20" value="fetch questions" style="edgeLabel;html=1;align=center;verticalAlign=middle;resizable=0;points=[];" vertex="1" connectable="0" parent="AI44dBaWt2bdJYa-vQ4_-19">
          <mxGeometry x="-0.2059" y="-4" relative="1" as="geometry">
            <mxPoint x="18" y="-4" as="offset" />
          </mxGeometry>
        </mxCell>
        <mxCell id="AI44dBaWt2bdJYa-vQ4_-22" value="" style="html=1;verticalAlign=bottom;endArrow=classic;edgeStyle=elbowEdgeStyle;elbow=horizontal;curved=0;rounded=0;endFill=1;" edge="1" parent="1">
          <mxGeometry relative="1" as="geometry">
            <mxPoint x="570" y="290" as="sourcePoint" />
            <Array as="points">
              <mxPoint x="700" y="289" />
              <mxPoint x="690" y="289" />
              <mxPoint x="620" y="289" />
              <mxPoint x="620" y="279" />
            </Array>
            <mxPoint x="780" y="289" as="targetPoint" />
            <mxPoint as="offset" />
          </mxGeometry>
        </mxCell>
        <mxCell id="AI44dBaWt2bdJYa-vQ4_-28" value="fetch questions" style="edgeLabel;html=1;align=center;verticalAlign=middle;resizable=0;points=[];" vertex="1" connectable="0" parent="AI44dBaWt2bdJYa-vQ4_-22">
          <mxGeometry x="-0.1215" y="1" relative="1" as="geometry">
            <mxPoint as="offset" />
          </mxGeometry>
        </mxCell>
        <mxCell id="AI44dBaWt2bdJYa-vQ4_-24" value="" style="html=1;verticalAlign=bottom;endArrow=classic;edgeStyle=elbowEdgeStyle;elbow=vertical;curved=0;rounded=0;endFill=1;dashed=1;" edge="1" parent="1" source="AI44dBaWt2bdJYa-vQ4_-21" target="AI44dBaWt2bdJYa-vQ4_-18">
          <mxGeometry relative="1" as="geometry">
            <mxPoint x="600" y="381" as="sourcePoint" />
            <Array as="points">
              <mxPoint x="680" y="310" />
              <mxPoint x="730" y="320" />
              <mxPoint x="720" y="380" />
              <mxPoint x="650" y="380" />
              <mxPoint x="650" y="370" />
            </Array>
            <mxPoint x="920" y="380" as="targetPoint" />
            <mxPoint as="offset" />
          </mxGeometry>
        </mxCell>
        <mxCell id="AI44dBaWt2bdJYa-vQ4_-25" value="fetched questions" style="edgeLabel;html=1;align=center;verticalAlign=middle;resizable=0;points=[];" vertex="1" connectable="0" parent="AI44dBaWt2bdJYa-vQ4_-24">
          <mxGeometry x="0.6194" y="2" relative="1" as="geometry">
            <mxPoint x="46" y="-2" as="offset" />
          </mxGeometry>
        </mxCell>
        <mxCell id="AI44dBaWt2bdJYa-vQ4_-26" value="" style="html=1;verticalAlign=bottom;endArrow=open;edgeStyle=elbowEdgeStyle;elbow=vertical;curved=0;rounded=0;endFill=0;dashed=1;" edge="1" parent="1" target="aM9ryv3xv72pqoxQDRHE-6">
          <mxGeometry relative="1" as="geometry">
            <mxPoint x="570" y="330" as="sourcePoint" />
            <Array as="points">
              <mxPoint x="505" y="330" />
              <mxPoint x="555" y="340" />
              <mxPoint x="545" y="400" />
              <mxPoint x="475" y="400" />
              <mxPoint x="475" y="390" />
            </Array>
            <mxPoint x="400" y="330" as="targetPoint" />
            <mxPoint as="offset" />
          </mxGeometry>
        </mxCell>
        <mxCell id="AI44dBaWt2bdJYa-vQ4_-27" value="fetched questions" style="edgeLabel;html=1;align=center;verticalAlign=middle;resizable=0;points=[];" vertex="1" connectable="0" parent="AI44dBaWt2bdJYa-vQ4_-26">
          <mxGeometry x="0.6194" y="2" relative="1" as="geometry">
            <mxPoint x="62" y="-2" as="offset" />
          </mxGeometry>
        </mxCell>
        <mxCell id="AI44dBaWt2bdJYa-vQ4_-29" value="answer question n" style="html=1;verticalAlign=bottom;endArrow=block;edgeStyle=elbowEdgeStyle;elbow=vertical;curved=0;rounded=0;" edge="1" parent="1">
          <mxGeometry relative="1" as="geometry">
            <mxPoint x="90" y="400" as="sourcePoint" />
            <Array as="points">
              <mxPoint x="110" y="400" />
              <mxPoint x="180" y="380" />
            </Array>
            <mxPoint x="385" y="400" as="targetPoint" />
          </mxGeometry>
        </mxCell>
        <mxCell id="AI44dBaWt2bdJYa-vQ4_-31" value="" style="html=1;verticalAlign=bottom;endArrow=open;edgeStyle=elbowEdgeStyle;elbow=vertical;curved=0;rounded=0;endFill=0;" edge="1" parent="1">
          <mxGeometry x="0.0061" relative="1" as="geometry">
            <mxPoint x="395" y="433" as="sourcePoint" />
            <Array as="points">
              <mxPoint x="530" y="433" />
              <mxPoint x="435" y="413" />
              <mxPoint x="435" y="403" />
            </Array>
            <mxPoint x="565" y="433" as="targetPoint" />
            <mxPoint as="offset" />
          </mxGeometry>
        </mxCell>
        <mxCell id="AI44dBaWt2bdJYa-vQ4_-36" value="post answers" style="edgeLabel;html=1;align=center;verticalAlign=middle;resizable=0;points=[];" vertex="1" connectable="0" parent="AI44dBaWt2bdJYa-vQ4_-31">
          <mxGeometry x="-0.1394" y="-2" relative="1" as="geometry">
            <mxPoint x="12" y="-2" as="offset" />
          </mxGeometry>
        </mxCell>
        <mxCell id="AI44dBaWt2bdJYa-vQ4_-34" value="" style="html=1;verticalAlign=bottom;endArrow=classic;edgeStyle=elbowEdgeStyle;elbow=vertical;curved=0;rounded=0;endFill=1;" edge="1" parent="1" target="AI44dBaWt2bdJYa-vQ4_-12">
          <mxGeometry x="0.0061" relative="1" as="geometry">
            <mxPoint x="570" y="450" as="sourcePoint" />
            <Array as="points">
              <mxPoint x="640" y="450" />
              <mxPoint x="615" y="420" />
              <mxPoint x="615" y="410" />
            </Array>
            <mxPoint x="745" y="420" as="targetPoint" />
            <mxPoint as="offset" />
          </mxGeometry>
        </mxCell>
        <mxCell id="AI44dBaWt2bdJYa-vQ4_-35" value="store answers" style="edgeLabel;html=1;align=center;verticalAlign=middle;resizable=0;points=[];" vertex="1" connectable="0" parent="AI44dBaWt2bdJYa-vQ4_-34">
          <mxGeometry x="0.2332" y="4" relative="1" as="geometry">
            <mxPoint x="-47" y="-1" as="offset" />
          </mxGeometry>
        </mxCell>
        <mxCell id="AI44dBaWt2bdJYa-vQ4_-38" value="" style="html=1;verticalAlign=bottom;endArrow=classic;edgeStyle=elbowEdgeStyle;elbow=vertical;curved=0;rounded=0;endFill=1;dashed=1;" edge="1" parent="1" source="aM9ryv3xv72pqoxQDRHE-5" target="AI44dBaWt2bdJYa-vQ4_-3">
          <mxGeometry relative="1" as="geometry">
            <mxPoint x="295" y="370" as="sourcePoint" />
            <Array as="points">
              <mxPoint x="230" y="370" />
              <mxPoint x="280" y="380" />
              <mxPoint x="270" y="440" />
              <mxPoint x="200" y="440" />
              <mxPoint x="200" y="430" />
            </Array>
            <mxPoint x="120" y="370" as="targetPoint" />
            <mxPoint as="offset" />
          </mxGeometry>
        </mxCell>
        <mxCell id="AI44dBaWt2bdJYa-vQ4_-39" value="provide question n" style="edgeLabel;html=1;align=center;verticalAlign=middle;resizable=0;points=[];" vertex="1" connectable="0" parent="AI44dBaWt2bdJYa-vQ4_-38">
          <mxGeometry x="0.6194" y="2" relative="1" as="geometry">
            <mxPoint x="62" y="-2" as="offset" />
          </mxGeometry>
        </mxCell>
        <mxCell id="AI44dBaWt2bdJYa-vQ4_-40" value="" style="rounded=0;whiteSpace=wrap;html=1;fillColor=none;" vertex="1" parent="1">
          <mxGeometry x="30" y="350" width="400" height="70" as="geometry" />
        </mxCell>
        <mxCell id="AI44dBaWt2bdJYa-vQ4_-43" value="loop n" style="text;html=1;strokeColor=none;fillColor=#FFF4C3;align=center;verticalAlign=middle;whiteSpace=wrap;rounded=0;" vertex="1" parent="1">
          <mxGeometry x="30" y="350" width="60" height="30" as="geometry" />
        </mxCell>
        <mxCell id="AI44dBaWt2bdJYa-vQ4_-45" value="" style="html=1;verticalAlign=bottom;endArrow=classic;edgeStyle=elbowEdgeStyle;elbow=vertical;curved=0;rounded=0;endFill=1;" edge="1" parent="1">
          <mxGeometry x="0.0061" relative="1" as="geometry">
            <mxPoint x="569.3235294117646" y="540" as="sourcePoint" />
            <Array as="points">
              <mxPoint x="690" y="540" />
              <mxPoint x="860" y="510" />
              <mxPoint x="835" y="480" />
              <mxPoint x="835" y="470" />
            </Array>
            <mxPoint x="945" y="540" as="targetPoint" />
            <mxPoint as="offset" />
          </mxGeometry>
        </mxCell>
        <mxCell id="AI44dBaWt2bdJYa-vQ4_-46" value="calculate holland code" style="edgeLabel;html=1;align=center;verticalAlign=middle;resizable=0;points=[];" vertex="1" connectable="0" parent="AI44dBaWt2bdJYa-vQ4_-45">
          <mxGeometry x="0.2332" y="4" relative="1" as="geometry">
            <mxPoint x="-19" y="4" as="offset" />
          </mxGeometry>
        </mxCell>
        <mxCell id="AI44dBaWt2bdJYa-vQ4_-48" value="" style="html=1;verticalAlign=bottom;endArrow=classic;edgeStyle=elbowEdgeStyle;elbow=vertical;curved=0;rounded=0;endFill=1;dashed=1;" edge="1" parent="1">
          <mxGeometry relative="1" as="geometry">
            <mxPoint x="949.5" y="560" as="sourcePoint" />
            <Array as="points">
              <mxPoint x="690" y="560" />
              <mxPoint x="740" y="570" />
              <mxPoint x="730" y="630" />
              <mxPoint x="660" y="630" />
              <mxPoint x="660" y="620" />
            </Array>
            <mxPoint x="569.3235294117646" y="560" as="targetPoint" />
            <mxPoint as="offset" />
          </mxGeometry>
        </mxCell>
        <mxCell id="AI44dBaWt2bdJYa-vQ4_-49" value="calculated holland code" style="edgeLabel;html=1;align=center;verticalAlign=middle;resizable=0;points=[];" vertex="1" connectable="0" parent="AI44dBaWt2bdJYa-vQ4_-48">
          <mxGeometry x="0.6194" y="2" relative="1" as="geometry">
            <mxPoint x="91" y="-2" as="offset" />
          </mxGeometry>
        </mxCell>
        <mxCell id="AI44dBaWt2bdJYa-vQ4_-51" value="" style="html=1;verticalAlign=bottom;endArrow=open;edgeStyle=elbowEdgeStyle;elbow=vertical;curved=0;rounded=0;endFill=0;dashed=1;" edge="1" parent="1">
          <mxGeometry relative="1" as="geometry">
            <mxPoint x="570" y="572" as="sourcePoint" />
            <Array as="points">
              <mxPoint x="540" y="572" />
              <mxPoint x="590" y="582" />
              <mxPoint x="580" y="642" />
              <mxPoint x="510" y="642" />
              <mxPoint x="510" y="632" />
            </Array>
            <mxPoint x="389.07142857142844" y="572" as="targetPoint" />
            <mxPoint as="offset" />
          </mxGeometry>
        </mxCell>
        <mxCell id="AI44dBaWt2bdJYa-vQ4_-52" value="calculated holland code" style="edgeLabel;html=1;align=center;verticalAlign=middle;resizable=0;points=[];" vertex="1" connectable="0" parent="AI44dBaWt2bdJYa-vQ4_-51">
          <mxGeometry x="0.6194" y="2" relative="1" as="geometry">
            <mxPoint x="56" y="-2" as="offset" />
          </mxGeometry>
        </mxCell>
        <mxCell id="AI44dBaWt2bdJYa-vQ4_-54" value="" style="html=1;verticalAlign=bottom;endArrow=open;edgeStyle=elbowEdgeStyle;elbow=vertical;curved=0;rounded=0;endFill=0;dashed=1;" edge="1" parent="1" source="aM9ryv3xv72pqoxQDRHE-5" target="AI44dBaWt2bdJYa-vQ4_-3">
          <mxGeometry relative="1" as="geometry">
            <mxPoint x="310" y="600" as="sourcePoint" />
            <Array as="points">
              <mxPoint x="280" y="600" />
              <mxPoint x="330" y="610" />
              <mxPoint x="320" y="670" />
              <mxPoint x="250" y="670" />
              <mxPoint x="250" y="660" />
            </Array>
            <mxPoint x="130" y="600" as="targetPoint" />
            <mxPoint as="offset" />
          </mxGeometry>
        </mxCell>
        <mxCell id="AI44dBaWt2bdJYa-vQ4_-55" value="display personal holland code" style="edgeLabel;html=1;align=center;verticalAlign=middle;resizable=0;points=[];" vertex="1" connectable="0" parent="AI44dBaWt2bdJYa-vQ4_-54">
          <mxGeometry x="0.6194" y="2" relative="1" as="geometry">
            <mxPoint x="93" y="-2" as="offset" />
          </mxGeometry>
        </mxCell>
        <mxCell id="AI44dBaWt2bdJYa-vQ4_-56" value="request suitable professions" style="html=1;verticalAlign=bottom;endArrow=block;edgeStyle=elbowEdgeStyle;elbow=vertical;curved=0;rounded=0;" edge="1" parent="1" source="AI44dBaWt2bdJYa-vQ4_-3">
          <mxGeometry relative="1" as="geometry">
            <mxPoint x="110" y="660" as="sourcePoint" />
            <Array as="points">
              <mxPoint x="130" y="660" />
              <mxPoint x="200" y="640" />
            </Array>
            <mxPoint x="390" y="660" as="targetPoint" />
            <mxPoint as="offset" />
          </mxGeometry>
        </mxCell>
        <mxCell id="AI44dBaWt2bdJYa-vQ4_-59" value="fetch suitable professions" style="html=1;verticalAlign=bottom;endArrow=open;edgeStyle=elbowEdgeStyle;elbow=vertical;curved=0;rounded=0;endFill=0;" edge="1" parent="1">
          <mxGeometry relative="1" as="geometry">
            <mxPoint x="389.32352941176464" y="687" as="sourcePoint" />
            <Array as="points">
              <mxPoint x="460" y="687" />
              <mxPoint x="530" y="667" />
            </Array>
            <mxPoint x="565" y="687" as="targetPoint" />
          </mxGeometry>
        </mxCell>
        <mxCell id="AI44dBaWt2bdJYa-vQ4_-61" value="find suitable professions" style="html=1;verticalAlign=bottom;endArrow=classic;edgeStyle=elbowEdgeStyle;elbow=vertical;curved=0;rounded=0;endFill=1;" edge="1" parent="1">
          <mxGeometry x="-0.001" relative="1" as="geometry">
            <mxPoint x="575" y="789" as="sourcePoint" />
            <Array as="points">
              <mxPoint x="860" y="789" />
              <mxPoint x="640" y="759" />
              <mxPoint x="710" y="739" />
            </Array>
            <mxPoint x="949.5" y="789" as="targetPoint" />
            <mxPoint as="offset" />
          </mxGeometry>
        </mxCell>
        <mxCell id="AI44dBaWt2bdJYa-vQ4_-62" value="" style="html=1;verticalAlign=bottom;endArrow=classic;edgeStyle=elbowEdgeStyle;elbow=vertical;curved=0;rounded=0;endFill=1;dashed=1;" edge="1" parent="1">
          <mxGeometry relative="1" as="geometry">
            <mxPoint x="945" y="815" as="sourcePoint" />
            <Array as="points">
              <mxPoint x="860" y="815" />
              <mxPoint x="700" y="785" />
              <mxPoint x="750" y="795" />
              <mxPoint x="740" y="855" />
              <mxPoint x="670" y="855" />
              <mxPoint x="670" y="845" />
            </Array>
            <mxPoint x="575" y="815" as="targetPoint" />
            <mxPoint as="offset" />
          </mxGeometry>
        </mxCell>
        <mxCell id="AI44dBaWt2bdJYa-vQ4_-63" value="suitable professions" style="edgeLabel;html=1;align=center;verticalAlign=middle;resizable=0;points=[];" vertex="1" connectable="0" parent="AI44dBaWt2bdJYa-vQ4_-62">
          <mxGeometry x="0.6194" y="2" relative="1" as="geometry">
            <mxPoint x="114" y="-2" as="offset" />
          </mxGeometry>
        </mxCell>
        <mxCell id="AI44dBaWt2bdJYa-vQ4_-64" value="" style="html=1;verticalAlign=bottom;endArrow=open;edgeStyle=elbowEdgeStyle;elbow=vertical;curved=0;rounded=0;endFill=0;dashed=1;" edge="1" parent="1" source="AI44dBaWt2bdJYa-vQ4_-57">
          <mxGeometry relative="1" as="geometry">
            <mxPoint x="569.5" y="810" as="sourcePoint" />
            <Array as="points">
              <mxPoint x="550" y="840" />
              <mxPoint x="580" y="810" />
              <mxPoint x="630" y="820" />
              <mxPoint x="620" y="880" />
              <mxPoint x="550" y="880" />
              <mxPoint x="550" y="870" />
            </Array>
            <mxPoint x="395" y="840" as="targetPoint" />
            <mxPoint as="offset" />
          </mxGeometry>
        </mxCell>
        <mxCell id="AI44dBaWt2bdJYa-vQ4_-65" value="suitable professions" style="edgeLabel;html=1;align=center;verticalAlign=middle;resizable=0;points=[];" vertex="1" connectable="0" parent="AI44dBaWt2bdJYa-vQ4_-64">
          <mxGeometry x="0.6194" y="2" relative="1" as="geometry">
            <mxPoint x="57" y="-2" as="offset" />
          </mxGeometry>
        </mxCell>
        <mxCell id="AI44dBaWt2bdJYa-vQ4_-66" value="" style="html=1;verticalAlign=bottom;endArrow=open;edgeStyle=elbowEdgeStyle;elbow=vertical;curved=0;rounded=0;endFill=0;dashed=1;" edge="1" parent="1">
          <mxGeometry relative="1" as="geometry">
            <mxPoint x="389.5000000000002" y="871" as="sourcePoint" />
            <Array as="points">
              <mxPoint x="330" y="871" />
              <mxPoint x="280" y="841" />
              <mxPoint x="330" y="851" />
              <mxPoint x="320" y="911" />
              <mxPoint x="250" y="911" />
              <mxPoint x="250" y="901" />
            </Array>
            <mxPoint x="89.99999999999977" y="871" as="targetPoint" />
            <mxPoint as="offset" />
          </mxGeometry>
        </mxCell>
        <mxCell id="AI44dBaWt2bdJYa-vQ4_-67" value="display suitable professions" style="edgeLabel;html=1;align=center;verticalAlign=middle;resizable=0;points=[];" vertex="1" connectable="0" parent="AI44dBaWt2bdJYa-vQ4_-66">
          <mxGeometry x="0.6194" y="2" relative="1" as="geometry">
            <mxPoint x="84" y="-2" as="offset" />
          </mxGeometry>
        </mxCell>
        <mxCell id="AI44dBaWt2bdJYa-vQ4_-69" value="fetch all professions" style="html=1;verticalAlign=bottom;endArrow=classic;edgeStyle=elbowEdgeStyle;elbow=vertical;curved=0;rounded=0;endFill=1;" edge="1" parent="1" target="AI44dBaWt2bdJYa-vQ4_-68">
          <mxGeometry relative="1" as="geometry">
            <mxPoint x="570.0035294117647" y="710" as="sourcePoint" />
            <Array as="points">
              <mxPoint x="640.6800000000001" y="710" />
              <mxPoint x="710.6800000000001" y="690" />
            </Array>
            <mxPoint x="745.6800000000001" y="710" as="targetPoint" />
          </mxGeometry>
        </mxCell>
        <mxCell id="AI44dBaWt2bdJYa-vQ4_-73" value="" style="html=1;verticalAlign=bottom;endArrow=classic;edgeStyle=elbowEdgeStyle;elbow=vertical;curved=0;rounded=0;endFill=1;dashed=1;" edge="1" parent="1" source="AI44dBaWt2bdJYa-vQ4_-68" target="AI44dBaWt2bdJYa-vQ4_-57">
          <mxGeometry relative="1" as="geometry">
            <mxPoint x="760" y="710" as="sourcePoint" />
            <Array as="points">
              <mxPoint x="770" y="740" />
              <mxPoint x="820" y="750" />
              <mxPoint x="810" y="810" />
              <mxPoint x="740" y="810" />
              <mxPoint x="740" y="800" />
            </Array>
            <mxPoint x="590" y="740" as="targetPoint" />
            <mxPoint as="offset" />
          </mxGeometry>
        </mxCell>
        <mxCell id="AI44dBaWt2bdJYa-vQ4_-74" value="professions" style="edgeLabel;html=1;align=center;verticalAlign=middle;resizable=0;points=[];" vertex="1" connectable="0" parent="AI44dBaWt2bdJYa-vQ4_-73">
          <mxGeometry x="0.6194" y="2" relative="1" as="geometry">
            <mxPoint x="57" y="-2" as="offset" />
          </mxGeometry>
        </mxCell>
        <mxCell id="AI44dBaWt2bdJYa-vQ4_-76" value="" style="html=1;verticalAlign=bottom;endArrow=classic;edgeStyle=elbowEdgeStyle;elbow=vertical;curved=0;rounded=0;endFill=1;" edge="1" parent="1" target="AI44dBaWt2bdJYa-vQ4_-12">
          <mxGeometry x="0.0061" relative="1" as="geometry">
            <mxPoint x="570" y="480" as="sourcePoint" />
            <Array as="points">
              <mxPoint x="650" y="480" />
              <mxPoint x="625" y="450" />
              <mxPoint x="625" y="440" />
            </Array>
            <mxPoint x="790" y="480" as="targetPoint" />
            <mxPoint as="offset" />
          </mxGeometry>
        </mxCell>
        <mxCell id="AI44dBaWt2bdJYa-vQ4_-77" value="fetch personalities" style="edgeLabel;html=1;align=center;verticalAlign=middle;resizable=0;points=[];" vertex="1" connectable="0" parent="AI44dBaWt2bdJYa-vQ4_-76">
          <mxGeometry x="0.2332" y="4" relative="1" as="geometry">
            <mxPoint x="-47" y="-1" as="offset" />
          </mxGeometry>
        </mxCell>
        <mxCell id="AI44dBaWt2bdJYa-vQ4_-78" value="" style="html=1;verticalAlign=bottom;endArrow=classic;edgeStyle=elbowEdgeStyle;elbow=vertical;curved=0;rounded=0;endFill=1;dashed=1;" edge="1" parent="1" target="AI44dBaWt2bdJYa-vQ4_-30">
          <mxGeometry relative="1" as="geometry">
            <mxPoint x="780" y="500" as="sourcePoint" />
            <Array as="points">
              <mxPoint x="775" y="500" />
              <mxPoint x="825" y="510" />
              <mxPoint x="815" y="570.0000000000001" />
              <mxPoint x="745" y="570.0000000000001" />
              <mxPoint x="745" y="560.0000000000001" />
            </Array>
            <mxPoint x="580" y="500" as="targetPoint" />
            <mxPoint as="offset" />
          </mxGeometry>
        </mxCell>
        <mxCell id="AI44dBaWt2bdJYa-vQ4_-79" value="personalities" style="edgeLabel;html=1;align=center;verticalAlign=middle;resizable=0;points=[];" vertex="1" connectable="0" parent="AI44dBaWt2bdJYa-vQ4_-78">
          <mxGeometry x="0.6194" y="2" relative="1" as="geometry">
            <mxPoint x="57" y="-2" as="offset" />
          </mxGeometry>
        </mxCell>
      </root>
    </mxGraphModel>
  </diagram>
</mxfile>
